<?xml version="1.0" standalone="no"?>
<!DOCTYPE svg PUBLIC "-//W3C//DTD SVG 20010904//EN"
 "http://www.w3.org/TR/2001/REC-SVG-20010904/DTD/svg10.dtd">
<svg version="1.0" xmlns="http://www.w3.org/2000/svg"
 width="96.000000pt" height="96.000000pt" viewBox="0 0 96.000000 96.000000"
 preserveAspectRatio="xMidYMid meet">

<g transform="translate(0.000000,96.000000) scale(0.100000,-0.100000)"
fill="#000000" stroke="none">
<path d="M408 871 c-68 -76 -121 -158 -114 -176 12 -31 43 -9 108 75 35 47 71
85 78 85 20 0 143 -166 189 -255 96 -184 93 -299 -11 -403 -54 -54 -63 -87
-23 -87 34 0 103 69 135 135 20 41 24 65 24 135 0 72 -4 97 -30 161 -35 88
-139 249 -208 327 -63 69 -88 70 -148 3z"/>
<path d="M236 628 c-8 -13 -27 -54 -42 -93 -39 -99 -40 -207 -3 -286 50 -106
160 -183 264 -184 47 0 50 2 50 25 0 22 -5 25 -53 32 -65 10 -117 36 -158 80
-55 58 -69 95 -69 183 0 69 5 89 33 149 36 76 39 101 16 110 -22 8 -22 8 -38
-16z"/>
</g>
</svg>
