<svg
  width="13"
  height="17"
  viewBox="0 0 13 17"
  fill="none"
  xmlns="http://www.w3.org/2000/svg"
>
  <path
    d="M6.5 0C2.16937 3.69688 0 6.89 0 9.5875C0 13.6338 3.0875 16.25 6.5 16.25C9.9125 16.25 13 13.6338 13 9.5875C13 6.89 10.8306 3.69688 6.5 0ZM3.11188 9.75C3.4125 9.75 3.65625 9.96125 3.71312 10.2537C4.04625 12.0575 5.56563 12.675 6.67063 12.5856C7.02 12.5694 7.3125 12.8456 7.3125 13.195C7.3125 13.52 7.0525 13.7881 6.7275 13.8044C4.99687 13.91 2.97375 12.9187 2.51063 10.4569C2.44563 10.0912 2.73813 9.75 3.11188 9.75Z"
    fill="#002040"
  />
</svg>
